HIERARCHY
ROOT Hips
{
	OFFSET 0.000000 0.000000 0.000000 
	CHANNELS 6 Xposition Yposition Zposition Yrotation Zrotation Xrotation 
	JOINT Lumbar
	{
		OFFSET 0.000000 0.000000 0.000000 
		CHANNELS 3 Zrotation Xrotation Yrotation
		JOINT Neck
		{
			OFFSET 0.000000 0.445665 0.000000 
			CHANNELS 3 Zrotation Xrotation Yrotation
			End Site
			{
				OFFSET 0.000000 0.227535 0.000000 
			}
		}
		JOINT RightShoulder
		{
			OFFSET 0.019635 0.377685 0.194865 
			CHANNELS 3 Zrotation Xrotation Yrotation
			JOINT RightElbow
			{
				OFFSET 0.000000 -0.243375 0.000000 
				CHANNELS 2 Zrotation Yrotation
				JOINT RightWrist
				{
					OFFSET 0.000000 -0.264825 0.000000 
					CHANNELS 2 Zrotation Xrotation
					End Site
					{
						OFFSET 0.006600 -0.176220 0.000990 
					}
				}
			}
		}
		JOINT LeftShoulder
		{
			OFFSET 0.019635 0.377685 -0.194865 
			CHANNELS 3 Zrotation Xrotation Yrotation
			JOINT LeftElbow
			{
				OFFSET 0.000000 -0.243375 0.000000 
				CHANNELS 2 Zrotation Yrotation
				JOINT LeftWrist
				{
					OFFSET 0.000000 -0.264825 0.000000 
					CHANNELS 2 Zrotation Xrotation
					End Site
					{
						OFFSET 0.006600 -0.176220 -0.000990 
					}
				}
			}
		}
	}
	JOINT RightHip
	{
		OFFSET 0.052140 -0.069960 0.075570 
		CHANNELS 3 Zrotation Xrotation Yrotation
		JOINT RightKnee
		{
			OFFSET 0.000000 -0.402270 0.000000 
			CHANNELS 1 Zrotation
			JOINT RightAnkle
			{
				OFFSET 0.000000 -0.404085 0.000000 
				CHANNELS 3 Zrotation Xrotation Yrotation
				End Site
				{
					OFFSET 0.204105 -0.089430 0.008415 
				}
			}
		}
	}
	JOINT LeftHip
	{
		OFFSET 0.052140 -0.069960 -0.075570 
		CHANNELS 3 Zrotation Xrotation Yrotation
		JOINT LeftKnee
		{
			OFFSET 0.000000 -0.402270 0.000000 
			CHANNELS 1 Zrotation
			JOINT LeftAnkle
			{
				OFFSET 0.000000 -0.404085 0.000000 
				CHANNELS 3 Zrotation Xrotation Yrotation
				End Site
				{
					OFFSET 0.204105 -0.089430 -0.008415 
				}
			}
		}
	}
}
MOTION
Frames: 34
Frame Time: 0.02
-0.31927 0.94619 0.093 265.1895 0 -7.55012 0.5681 1.895 -7.22478 -18.87889 16.25607 8.69185 53.37022 -13.83199 25.11674 137.62446 140.84787 -79.6984 -22.97522 18.1834 -6.40964 3.03246 8.60075 -72.97205 -6.73119 -0.18872 1.27067 13.72081 -10.30776 -13.0078 6.72452 2.75286 11.62161 22.66843 9.46272 -5.86155 -66.34582 4.40127 0.10248 -4.70549
-0.31802 0.94513 0.08696 265.3689 0 -7.79978 -0.9188 2.59627 -6.41258 -16.19875 15.54482 7.28353 50.27134 -13.13685 25.28862 137.62446 140.97874 -79.6984 -22.97522 16.24211 -5.38471 3.58912 8.74829 -73.38497 -6.61931 -0.32095 1.62593 13.76767 -11.94789 -13.07194 6.7597 2.28556 12.65802 24.37871 8.93777 -5.85318 -68.25094 3.45341 0.7839 -3.01576
-0.31653 0.94408 0.08047 265.55762 0 -8.08145 -2.52158 3.34035 -5.57793 -13.33216 14.70366 5.85832 46.90904 -12.3627 25.67834 137.62446 141.10463 -79.6984 -22.97523 14.13603 -4.29554 3.8303 8.899 -73.59504 -6.51562 -0.46315 2.01799 13.80272 -13.82646 -13.16306 6.79428 1.66556 13.83274 26.14473 8.40399 -5.72209 -70.09501 2.58659 1.40015 -1.30331
-0.31514 0.94306 0.07416 265.75281 0 -8.33267 -4.07983 4.04889 -4.77176 -10.54718 13.92345 4.46123 43.66753 -11.63648 25.97946 137.62446 141.21862 -79.6984 -22.97523 12.10611 -3.24617 4.17683 9.04753 -73.90469 -6.41814 -0.59783 2.39526 13.83859 -15.49721 -13.2373 6.82116 1.14201 14.85442 27.85829 7.8608 -5.6521 -71.85811 1.7585 2.02094 0.3263
-0.31378 0.94186 0.06794 265.90449 0 -8.65545 -5.61127 4.83146 -3.88491 -7.76071 13.13296 2.97177 40.40204 -10.85697 26.23563 137.62446 141.3933 -79.6984 -22.97523 10.05827 -2.14392 4.65428 9.20228 -74.19147 -6.28028 -0.74895 2.76638 13.89588 -17.60594 -13.3309 6.88074 0.51191 16.27137 29.70299 7.37448 -5.55582 -74.10662 0.61007 2.75094 2.265
-0.3123 0.94106 0.06145 266.14766 0 -8.83411 -7.22167 5.46609 -3.16154 -4.94137 12.33535 1.67319 37.13605 -10.17129 26.63756 137.62446 141.44053 -79.6984 -22.97524 8.01657 -1.1419 4.79707 9.34299 -74.47131 -6.22702 -0.86706 3.15768 13.90406 -18.85057 -13.39083 6.87253 0.05829 16.89015 31.27652 6.76823 -5.48883 -75.30893 0.14388 3.2397 3.57001
-0.31052 0.94133 0.0542 266.64921 0 -8.62 -9.03952 5.70128 -2.90258 -2.04552 11.53248 0.905 33.87795 -9.75658 27.38953 137.62446 141.13111 -79.6984 -22.97524 5.99484 -0.40532 4.07071 9.45237 -74.82118 -6.4161 -0.88717 3.60267 13.79051 -17.67294 -13.34863 6.6764 0.20876 15.30161 32.14713 5.82645 -5.50425 -73.76841 1.60095 3.04033 3.04571
-0.30862 0.94201 0.04672 267.24043 0 -8.25769 -10.928 5.78217 -2.80814 0.86834 10.73089 0.33111 30.64213 -9.44071 28.28101 137.62446 140.69471 -79.6984 -22.97525 3.99401 0.22207 3.0249 9.54587 -75.16327 -6.68802 -0.87375 4.06496 13.62627 -15.61392 -13.27196 6.41254 0.5289 12.90117 32.73011 4.76682 -5.55811 -71.15259 3.73162 2.60603 1.89456
-0.30678 0.94252 0.0394 267.78576 0 -7.95313 -12.77258 5.91989 -2.63407 3.7532 9.93938 -0.33109 27.4326 -9.08472 29.10783 137.62446 140.31987 -79.6984 -22.97525 2.00841 0.88128 2.14598 9.64064 -75.48198 -6.91478 -0.87818 4.51489 13.47718 -13.93788 -13.21287 6.18014 0.71703 10.84618 33.40435 3.76345 -5.61419 -68.93849 5.51624 2.30387 1.0784
-0.30488 0.94297 0.03181 268.35498 0 -7.68675 -14.67403 6.11398 -2.47961 6.73735 9.09569 -0.99643 24.05429 -8.70563 29.94622 137.62446 139.9278 -79.6984 -22.97525 -0.09068 1.61912 1.17063 9.75972 -75.90626 -7.17323 -0.87275 4.98617 13.35876 -12.33273 -13.1471 5.94409 1.12463 8.88093 34.24785 2.74243 -5.58597 -67.08146 7.47267 1.89456 0.05465
-0.3031 0.94364 0.02475 268.8933 0 -7.30965 -16.46862 6.15508 -2.32374 9.5106 8.36595 -1.60571 21.0433 -8.39925 30.79245 137.62446 139.54253 -79.6984 -22.97526 -1.94226 2.16499 0.31598 9.82555 -76.11278 -7.38566 -0.87884 5.41532 13.16738 -10.38239 -13.08609 5.70053 1.12616 6.55242 34.66906 1.73777 -5.74015 -64.23635 9.22953 1.65078 -0.68971
-0.30165 0.94488 0.01905 269.34432 0 -6.62503 -17.98059 5.79712 -2.12379 11.74537 7.92353 -2.13442 18.98429 -8.2693 31.61166 137.62446 139.19889 -79.69841 -22.97531 -3.148 2.21852 -0.05161 9.73787 -75.70973 -7.44712 -0.93239 5.7345 12.76311 -7.56269 -13.05241 5.44434 -0.11236 3.2592 34.00019 0.74265 -6.42298 -58.84068 10.27534 1.94488 -0.47708
-0.30033 0.94631 0.01392 269.75754 0 -5.84121 -19.376 5.29314 -1.91696 13.75693 7.60157 -2.60858 17.30663 -8.20968 32.43576 137.62446 138.86825 -79.69841 -22.97537 -4.09836 2.08016 -0.29899 9.59915 -75.0913 -7.46006 -0.99718 6.00855 12.29195 -4.4483 -13.0238 5.18435 -1.75193 -0.34366 32.91583 -0.22011 -7.28236 -52.50714 11.09538 2.40973 0.03227
-0.299 0.9476 0.00863 270.17471 0 -5.12737 -20.8052 4.86498 -1.7132 15.83845 7.24271 -3.08976 15.49251 -8.11822 33.26581 137.62446 138.53681 -79.69842 -22.97542 -5.14363 2.02215 -0.64952 9.49043 -74.57842 -7.49751 -1.05198 6.29607 11.86672 -1.55539 -12.98854 4.93189 -3.15426 -3.69882 32.0165 -1.15505 -8.03884 -46.65499 12.01572 2.78133 0.38451
-0.29749 0.94911 0.0029 270.65017 0 -4.30254 -22.31965 4.39083 -1.51496 18.05503 6.80798 -3.63811 13.52161 -8.02911 34.06556 137.62446 138.17849 -79.69842 -22.97549 -6.278 1.98953 -0.80727 9.35203 -74.03034 -7.52737 -1.1265 6.61378 11.37296 1.73335 -12.96914 4.65329 -4.77578 -7.52872 31.11935 -2.27263 -8.89178 -40.51904 12.97092 3.21044 0.80868
-0.29637 0.95021 -0.00176 270.99492 0 -3.68817 -23.62575 3.98068 -1.30202 19.93529 6.56048 -4.03752 11.96982 -7.9512 34.92877 137.62446 137.88199 -79.69842 -22.97553 -7.16583 1.85957 -1.33293 9.26402 -73.50758 -7.56058 -1.16272 6.85785 11.00818 4.26172 -12.91999 4.42823 -6.04709 -10.43925 30.1275 -3.00189 -9.58587 -34.78219 13.78912 3.5638 1.16193
-0.29629 0.95013 -0.00372 270.98009 0 -3.67168 -24.40237 3.77596 -1.04469 20.95482 6.79523 -4.02762 11.46384 -7.88058 35.95456 137.62446 137.7442 -79.69842 -22.97549 -7.43911 1.51166 -2.91005 9.32347 -73.08125 -7.61334 -1.09389 6.9077 11.00302 4.56256 -12.77353 4.36116 -6.17209 -10.67142 28.93615 -2.65522 -9.79311 -30.24006 14.29761 3.6638 1.24738
-0.29659 0.94963 -0.00462 270.83598 0 -3.87224 -24.96946 3.64272 -0.77316 21.64047 7.21473 -3.87264 11.36987 -7.81936 37.04435 137.62446 137.67028 -79.69842 -22.97543 -7.4721 1.07289 -4.85913 9.43619 -72.69235 -7.67102 -0.98606 6.88519 11.13196 4.09139 -12.59968 4.34767 -5.94296 -9.97275 27.67285 -1.92091 -9.83542 -26.16333 14.66994 3.68332 1.2544
-0.29671 0.94932 -0.00595 270.75582 0 -3.97956 -25.62111 3.48223 -0.51074 22.47074 7.55379 -3.79275 11.09903 -7.75771 38.113 137.62446 137.57375 -79.69841 -22.97538 -7.61323 0.67288 -6.63181 9.52739 -72.30411 -7.72707 -0.89345 6.89707 11.20911 4.0092 -12.44774 4.30274 -5.93484 -9.7416 26.46968 -1.37051 -9.95599 -21.9682 15.09271 3.74243 1.29987
-0.29688 0.94903 -0.00745 270.65264 0 -4.06193 -26.31487 3.2947 -0.23638 23.32532 7.88433 -3.67292 10.79741 -7.68294 39.15291 137.62446 137.45121 -79.69841 -22.97532 -7.75149 0.27406 -8.43017 9.60569 -71.83555 -7.77895 -0.8101 6.90135 11.24811 3.7877 -12.25619 4.28368 -5.70268 -9.34534 25.13527 -0.78449 -10.06763 -17.34494 15.55714 3.79456 1.34279
-0.29702 0.94859 -0.00835 270.56695 0 -4.24735 -26.87125 3.18207 0.01567 24.0503 8.27223 -3.60161 10.65317 -7.63608 40.26213 137.62446 137.39696 -79.6984 -22.97527 -7.84003 -0.14289 -10.26665 9.72388 -71.54372 -7.84126 -0.70018 6.90447 11.39573 3.65548 -12.14033 4.22839 -5.82819 -9.05347 24.06352 -0.18337 -10.15783 -13.73837 15.9043 3.84002 1.3694
-0.29705 0.94784 -0.00785 270.56194 0 -4.6804 -27.11165 3.26246 0.20918 24.52132 8.79626 -3.70853 10.83849 -7.67037 41.59392 137.62446 137.52362 -79.6984 -22.97528 -7.86786 -0.61603 -12.09867 9.94193 -71.75128 -7.93134 -0.50794 6.92578 11.84208 4.07578 -12.24311 4.0176 -7.19819 -9.39964 23.72969 0.38562 -10.21479 -12.81652 15.96985 3.8847 1.36215
-0.29704 0.94696 -0.00676 270.57809 0 -5.20726 -27.21904 3.41573 0.37854 24.86994 9.36691 -3.86796 11.16723 -7.73132 42.98348 137.62446 137.71527 -79.69841 -22.9753 -7.85188 -1.09815 -13.95748 10.19789 -72.13271 -8.03168 -0.29347 6.94816 12.38792 4.59174 -12.4228 3.77599 -8.90882 -9.86021 23.66612 0.95276 -10.25672 -12.90937 15.9216 3.92462 1.34084
-0.29701 0.94617 -0.00593 270.5855 0 -5.68091 -27.38034 3.5341 0.55458 25.26172 9.90039 -3.99786 11.43071 -7.775 44.31712 137.62446 137.87191 -79.69841 -22.97531 -7.84563 -1.55645 -15.82045 10.43515 -72.42206 -8.12781 -0.10159 6.96756 12.86742 4.98223 -12.56495 3.57684 -10.34701 -10.18463 23.48372 1.50627 -10.3153 -12.54694 15.92054 3.96773 1.33027
-0.29713 0.94525 -0.00511 270.58864 0 -6.20627 -27.56309 3.66276 0.74904 25.69619 10.50727 -4.14648 11.70766 -7.83905 45.78234 137.62446 138.05391 -79.69841 -22.97532 -7.87393 -2.10083 -17.63889 10.68106 -72.76748 -8.22332 0.14336 6.99407 13.4393 5.68145 -12.71569 3.26125 -12.26051 -10.82527 23.2801 2.1327 -10.33071 -12.17097 15.93328 4.00535 1.30042
-0.29693 0.94456 -0.00414 270.6024 0 -6.64396 -27.67079 3.78591 0.89948 26.01471 10.97068 -4.27059 11.98707 -7.86908 46.98121 137.62446 138.19765 -79.69841 -22.97533 -7.82287 -2.46751 -19.53713 10.91649 -73.03728 -8.32105 0.28383 7.00806 13.84248 5.7838 -12.86889 3.17789 -13.28104 -10.85507 23.18784 2.6039 -10.42969 -12.06381 15.89261 4.05237 1.30631
-0.29587 0.94459 -0.00294 270.6823 0 -6.81054 -27.61753 3.87987 0.93127 26.06395 11.01864 -4.31433 12.21904 -7.78038 47.46967 137.62446 138.21927 -79.69841 -22.97532 -7.56652 -2.33433 -21.76842 11.12007 -73.05275 -8.43524 0.11918 6.97843 13.73907 4.10231 -12.99541 3.76314 -11.65294 -9.10018 23.32089 2.62654 -10.80671 -12.40355 15.72841 4.14167 1.43076
-0.29447 0.94486 -0.00161 270.76403 0 -6.88562 -27.49151 3.96462 0.91965 25.99787 10.921 -4.33254 12.44968 -7.66052 47.67732 137.62446 138.19956 -79.6984 -22.97531 -7.23264 -2.02256 -24.05286 11.31024 -72.98648 -8.54918 -0.14944 6.93819 13.46474 1.84174 -13.1247 4.5793 -9.13433 -6.74434 23.56004 2.49484 -11.26181 -12.98579 15.51598 4.23717 1.58814
-0.29321 0.945 -0.00033 270.81922 0 -7.00555 -27.39129 4.05081 0.93034 25.97335 10.89443 -4.36275 12.69172 -7.56603 47.99144 137.62446 138.19931 -79.69842 -22.9753 -6.93327 -1.79697 -26.23558 11.50221 -72.95941 -8.65443 -0.36334 6.90893 13.2789 -0.07631 -13.26237 5.27641 -7.09088 -4.71409 23.7616 2.44524 -11.65241 -13.48517 15.32865 4.3215 1.72108
-0.29203 0.9452 0.00093 270.98746 0 -7.11539 -27.31833 4.15154 0.93108 25.99276 10.84951 -4.39203 12.89468 -7.42249 48.40965 137.62446 138.20004 -79.69839 -22.97527 -6.63466 -1.55165 -28.75559 11.71403 -72.92979 -8.79604 -0.60814 6.85362 13.05138 -2.32686 -13.3617 6.03172 -4.7632 -2.46546 23.92781 2.34549 -12.16168 -13.9031 15.12312 4.44488 1.89683
-0.29059 0.94534 0.00225 270.91556 0 -7.22287 -27.17136 4.21837 0.94032 25.89164 10.80686 -4.41778 13.17524 -7.37669 48.52763 137.62446 138.18616 -79.69839 -22.97527 -6.31743 -1.30352 -30.57444 11.88037 -72.88379 -8.8632 -0.81334 6.85012 12.86824 -4.02311 -13.54094 6.72148 -2.80967 -0.52782 24.18912 2.31334 -12.44655 -14.5371 14.94643 4.48347 1.98725
-0.28862 0.94525 0.00364 270.21908 0 -7.34785 -26.85286 4.19663 1.00252 25.51433 10.81113 -4.42835 13.68263 -7.57938 48.01865 137.62446 138.15827 -79.69847 -22.97534 -5.96195 -1.10225 -30.53599 11.92802 -72.81139 -8.71206 -0.88597 6.99172 12.85307 -4.04484 -13.93712 7.16991 -2.12687 0.40036 24.68616 2.50492 -12.06066 -15.6835 14.85418 4.33028 1.87085
-0.28639 0.9451 0.00509 269.27195 0 -7.47208 -26.45989 4.1397 1.07125 25.01469 10.82098 -4.43772 14.2652 -7.8863 47.19031 137.62446 138.11405 -79.69828 -22.97534 -5.59189 -0.90189 -29.77311 11.92947 -72.7244 -8.48838 -0.91506 7.18597 12.88705 -3.48631 -14.41418 7.5452 -1.84845 0.99293 25.27288 2.76884 -11.45387 -17.03728 14.7944 4.08425 1.66136
-0.28423 0.94499 0.00656 268.41587 0 -7.59602 -26.09236 4.09736 1.12492 24.55353 10.82542 -4.45561 14.80446 -8.16505 46.4226 137.62446 138.06593 -79.69856 -22.97549 -5.2324 -0.69432 -29.28098 11.94955 -72.6443 -8.30622 -0.96248 7.35642 12.8959 -3.19943 -14.85538 7.95673 -1.36719 1.7459 25.81929 3.00152 -10.96733 -18.30877 14.72511 3.8509 1.46948
